<?xml version="1.0" encoding="UTF-8"?>
<svg version="1.1" xmlns="http://www.w3.org/2000/svg" width="572" height="436">
<path d="M0 0 C1.28725227 -0.04334724 1.28725227 -0.04334724 2.60050964 -0.08757019 C3.99575615 -0.11443657 3.99575615 -0.11443657 5.41918945 -0.1418457 C6.37638382 -0.16036087 7.33357819 -0.17887604 8.31977844 -0.19795227 C10.34981497 -0.2300351 12.37996205 -0.25566443 14.41015625 -0.27539062 C16.48311006 -0.30343199 18.55589585 -0.35112498 20.62792969 -0.41894531 C37.76018337 -0.97821515 37.76018337 -0.97821515 42.63134766 2.17163086 C44.46021769 4.49483683 45.6499025 6.67342737 46.8449707 9.36987305 C47.66114562 10.59688799 48.49964555 11.80948374 49.36450195 13.00268555 C50.13249012 14.16433317 50.89677334 15.32843808 51.6574707 16.49487305 C52.50753722 17.78536538 53.35780399 19.07572581 54.20825195 20.3659668 C54.63831543 21.02064941 55.06837891 21.67533203 55.51147461 22.34985352 C56.87625945 24.41727018 58.25480365 26.47485051 59.63793945 28.5300293 C60.09128662 29.20469238 60.54463379 29.87935547 61.01171875 30.57446289 C61.88020592 31.86614075 62.75009115 33.15688003 63.62158203 34.4465332 C65.56241699 37.34248314 67.39518122 40.19451891 68.8449707 43.36987305 C67.8449707 44.36987305 67.8449707 44.36987305 65.91159058 44.45407104 C64.64087204 44.42762009 64.64087204 44.42762009 63.34448242 44.40063477 C62.38613495 44.38507538 61.42778748 44.36951599 60.44039917 44.35348511 C59.39570465 44.33569 58.35101013 44.3178949 57.2746582 44.29956055 C55.07675471 44.28865453 52.87883347 44.28094477 50.6809082 44.27612305 C47.20332 44.26827518 43.7299611 44.24509537 40.25317383 44.16772461 C27.32516166 43.26437976 27.32516166 43.26437976 15.84082031 47.74487305 C14.04339797 50.58927079 12.94665454 53.20402548 11.8449707 56.36987305 C10.2019043 58.74438477 10.2019043 58.74438477 8.6574707 60.61987305 C6.9288813 62.79181824 5.55550236 64.88844667 4.1965332 67.32299805 C1.29787144 72.48317778 -2.10368203 77.3148978 -5.4453125 82.19458008 C-6.58884405 83.86449143 -7.72871361 85.53685256 -8.86791992 87.2097168 C-11.90758144 91.66360957 -14.94582608 96.10986061 -18.12768555 100.46362305 C-20.26980922 103.24185995 -20.26980922 103.24185995 -21.1550293 106.36987305 C-22.1450293 106.86487305 -22.1450293 106.86487305 -23.1550293 107.36987305 C-24.13978225 109.04520487 -25.11887602 110.72435021 -26.05737305 112.42602539 C-27.76424147 115.44873145 -29.71194252 118.30881625 -31.6550293 121.18237305 C-32.53013878 122.48568496 -33.40513336 123.78907403 -34.2800293 125.0925293 C-34.74151367 125.77847168 -35.20299805 126.46441406 -35.6784668 127.17114258 C-38.34828402 131.1467335 -41.00031833 135.13418653 -43.6550293 139.11987305 C-44.66537319 140.63554656 -45.675785 142.1511748 -46.6862793 143.66674805 C-47.11489258 144.30966797 -47.54350586 144.95258789 -47.98510742 145.61499023 C-49.57006836 147.99243164 -49.57006836 147.99243164 -51.1550293 150.36987305 C-51.8150293 150.36987305 -52.4750293 150.36987305 -53.1550293 150.36987305 C-53.1550293 151.02987305 -53.1550293 151.68987305 -53.1550293 152.36987305 C-38.67960317 152.42527188 -24.2054184 152.42614972 -9.72998047 152.37055969 C-2.27135647 152.35054827 5.18034293 152.40773177 12.63764954 152.54701233 C17.10547992 152.62106062 21.57266356 152.64366211 26.04104614 152.6557312 C28.14754798 152.67338532 30.25399144 152.71390254 32.35958862 152.77810669 C42.89909749 153.51840655 42.89909749 153.51840655 52.54055786 150.17245483 C55.89694813 146.72685155 57.81436123 142.68538277 59.8449707 138.36987305 C60.84268109 136.783538 61.86408309 135.21159467 62.91918945 133.6628418 C64.23362815 131.60554316 65.54099454 129.5439097 66.84692383 127.48120117 C69.56102806 123.23565259 72.4274417 119.17794205 75.51171875 115.19213867 C76.81509069 113.41071252 77.90329224 111.61302218 78.9699707 109.68237305 C80.8449707 106.36987305 80.8449707 106.36987305 82.7824707 103.99487305 C84.58986389 101.69455444 85.89869288 99.55486202 87.2824707 96.99487305 C89.54098598 92.84615421 91.8704301 89.04891011 94.8449707 85.36987305 C95.8349707 85.36987305 96.8249707 85.36987305 97.8449707 85.36987305 C99.5637207 87.3815918 99.5637207 87.3815918 101.3449707 90.05737305 C101.9327832 90.92749023 102.5205957 91.79760742 103.1262207 92.6940918 C103.6934082 93.57709961 104.2605957 94.46010742 104.8449707 95.36987305 C105.4121582 96.24256836 105.9793457 97.11526367 106.5637207 98.0144043 C107.8449707 100.36987305 107.8449707 100.36987305 107.8449707 103.36987305 C108.5049707 103.36987305 109.1649707 103.36987305 109.8449707 103.36987305 C111.3527832 105.2331543 111.3527832 105.2331543 112.9699707 107.68237305 C113.50879883 108.48288086 114.04762695 109.28338867 114.6027832 110.1081543 C115.8449707 112.36987305 115.8449707 112.36987305 115.8449707 115.36987305 C116.8349707 115.69987305 117.8249707 116.02987305 118.8449707 116.36987305 C121.41972036 119.80287259 122.33513988 122.10917178 121.8449707 126.36987305 C120.34106445 128.87768555 120.34106445 128.87768555 118.2824707 131.49487305 C113.49268982 137.77933733 109.12413922 144.28659843 105.27075195 151.19018555 C104.80024414 151.90948242 104.32973633 152.6287793 103.8449707 153.36987305 C103.1849707 153.36987305 102.5249707 153.36987305 101.8449707 153.36987305 C101.72114014 153.95865234 101.59730957 154.54743164 101.46972656 155.15405273 C100.4751974 158.68134726 98.38533855 161.57414227 96.4074707 164.61987305 C95.99948242 165.26956055 95.59149414 165.91924805 95.17114258 166.58862305 C94.12006468 168.22096588 92.98826035 169.80073422 91.8449707 171.36987305 C91.1849707 171.36987305 90.5249707 171.36987305 89.8449707 171.36987305 C89.74055664 171.9215918 89.63614258 172.47331055 89.52856445 173.04174805 C88.69936686 175.86575814 87.4169742 178.0954222 85.9074707 180.61987305 C85.38282227 181.5119043 84.85817383 182.40393555 84.31762695 183.32299805 C83.83165039 183.9984668 83.34567383 184.67393555 82.8449707 185.36987305 C82.1849707 185.36987305 81.5249707 185.36987305 80.8449707 185.36987305 C80.5974707 186.07112305 80.3499707 186.77237305 80.0949707 187.49487305 C78.66850722 190.77573906 76.9909469 193.50857145 74.8449707 196.36987305 C71.08264766 197.62398073 67.58211234 197.50452452 63.66365051 197.49012756 C62.39798792 197.4914092 62.39798792 197.4914092 61.10675639 197.49271673 C58.269229 197.49436857 55.43176026 197.48885496 52.59423828 197.48339844 C50.56426495 197.48311648 48.53429151 197.48327447 46.50431824 197.48384094 C40.9840019 197.48412857 35.46370716 197.47823744 29.94339585 197.47126698 C24.17781575 197.46502767 18.41223518 197.46442919 12.64665222 197.46324158 C1.72446302 197.46012997 -9.1977162 197.45191887 -20.119901 197.44189209 C-32.55262266 197.43072566 -44.98534478 197.42521916 -57.4180702 197.42019665 C-82.9970621 197.40973613 -108.57604514 197.39213998 -134.1550293 197.36987305 C-133.26739907 192.57252525 -131.68016134 189.52412253 -129.1550293 185.36987305 C-128.4950293 185.36987305 -127.8350293 185.36987305 -127.1550293 185.36987305 C-126.90027832 184.66032471 -126.64552734 183.95077637 -126.38305664 183.21972656 C-125.04671804 180.11851773 -123.41045551 177.56010145 -121.5065918 174.7722168 C-120.79148437 173.71760254 -120.07637695 172.66298828 -119.33959961 171.57641602 C-118.2582373 169.98917725 -118.2582373 169.98917725 -117.1550293 168.36987305 C-115.88964138 166.47692199 -114.62654587 164.58243612 -113.3659668 162.6862793 C-112.74117432 161.74913086 -112.11638184 160.81198242 -111.47265625 159.84643555 C-110.13510489 157.84002446 -108.79771171 155.83350792 -107.46044922 153.8269043 C-104.0379286 148.69173997 -100.61323462 143.55806293 -97.18237305 138.4284668 C-96.5560498 137.49123779 -95.92972656 136.55400879 -95.28442383 135.58837891 C-94.11058465 133.83203662 -92.93584316 132.07629689 -91.76000977 130.32128906 C-88.78977649 125.87490995 -85.92106852 121.40318926 -83.22216797 116.78588867 C-82.87001221 116.31860352 -82.51785645 115.85131836 -82.1550293 115.36987305 C-81.4950293 115.36987305 -80.8350293 115.36987305 -80.1550293 115.36987305 C-80.00420898 114.52102539 -80.00420898 114.52102539 -79.8503418 113.6550293 C-79.01431275 110.90740575 -77.72987804 109.12084431 -76.0300293 106.80737305 C-73.45232402 103.22488877 -70.99949139 99.60934312 -68.6550293 95.86987305 C-65.86933598 91.44261046 -62.92675026 87.1627447 -59.90112305 82.8972168 C-58.09651328 80.28517537 -56.40110973 77.62381115 -54.7175293 74.93237305 C-51.69836967 70.13285696 -48.43436804 65.56686685 -45.07299805 61.00268555 C-41.1291704 55.5889588 -37.52411761 50.07288814 -34.2644043 44.22143555 C-32.39421893 41.10006983 -30.23401111 38.18248439 -28.12768555 35.2175293 C-25.97403003 32.10858895 -23.93184068 28.93696657 -21.9050293 25.74487305 C-18.43963437 20.30195945 -14.86738819 14.94088194 -11.2175293 9.61987305 C-10.74476563 8.92812988 -10.27200195 8.23638672 -9.78491211 7.52368164 C-4.6955751 0.14100141 -4.6955751 0.14100141 0 0 Z " fill="#F5F5F3" transform="translate(173.155029296875,127.630126953125)"/>
<path d="M0 0 C7.31367694 -0.17753514 14.6267983 -0.3000933 21.94213867 -0.38452148 C24.43030562 -0.41971686 26.91832789 -0.46748077 29.40600586 -0.52807617 C32.98327302 -0.61302824 36.55862678 -0.65269925 40.13671875 -0.68359375 C41.80416389 -0.73778725 41.80416389 -0.73778725 43.5052948 -0.79307556 C51.0421203 -0.79690456 51.0421203 -0.79690456 53.84463501 1.53463745 C55.60609305 3.90930194 57 5.97146115 57 9 C57.66 9 58.32 9 59 9 C59.27972656 9.53367188 59.55945313 10.06734375 59.84765625 10.6171875 C62.75521463 16.02094552 66.01383907 20.98687242 69.64453125 25.93359375 C71 28 71 28 71 30 C71.66 30 72.32 30 73 30 C74.46533794 32.05512126 75.80747305 34.1022506 77.125 36.25 C81.28205462 42.92556217 85.6231074 49.46656855 90 56 C91.33385614 57.99965136 92.66719557 59.9996475 94 62 C94.66 62.99 95.32 63.98 96 65 C102 74 102 74 103.98974609 76.9855957 C105.35606341 79.03440793 106.72362177 81.08239294 108.09228516 83.12963867 C111.89975531 88.82828096 115.67190688 94.54555156 119.375 100.3125 C122.18730754 104.68515248 125.01557716 109.04325233 127.92578125 113.3515625 C128.39000488 114.03951904 128.85422852 114.72747559 129.33251953 115.4362793 C130.21875468 116.74519273 131.10890353 118.05146697 132.00341797 119.35473633 C135 123.7810881 135 123.7810881 135 126 C135.66 126 136.32 126 137 126 C141 131.29411765 141 131.29411765 141 135 C141.66 135 142.32 135 143 135 C144.14501953 136.43701172 144.14501953 136.43701172 145.3828125 138.4296875 C146.04990234 139.49896484 146.04990234 139.49896484 146.73046875 140.58984375 C147.19066406 141.34394531 147.65085937 142.09804688 148.125 142.875 C148.59292969 143.62136719 149.06085938 144.36773437 149.54296875 145.13671875 C153 150.73045736 153 150.73045736 153 153 C153.66 153 154.32 153 155 153 C156.62628843 155.40920424 158.1393698 157.81830499 159.625 160.3125 C163.23516291 166.24779693 166.99678087 171.94045489 171.2109375 177.47265625 C173 180 173 180 174.79980469 183.18164062 C177.02806811 187.11269153 179.48122991 190.86616318 181.9921875 194.62109375 C182.69482224 195.67648094 182.69482224 195.67648094 183.41165161 196.75318909 C184.39716139 198.23213018 185.3838222 199.71030487 186.37158203 201.18774414 C187.86705905 203.42561695 189.35759563 205.66672131 190.84765625 207.90820312 C195.02584716 214.17741178 199.19985187 220.3956633 203.80712891 226.36083984 C205.03886921 228.05341136 206.07358004 229.7784686 207.09375 231.60546875 C209.02421327 235.04311748 211.171017 238.13343821 213.5 241.3125 C217.64049393 247.03798959 221.67114411 252.8315284 225.625 258.6875 C226.15802734 259.46585205 226.69105469 260.2442041 227.24023438 261.04614258 C227.73072266 261.77728271 228.22121094 262.50842285 228.7265625 263.26171875 C229.16564941 263.91100342 229.60473633 264.56028809 230.05712891 265.22924805 C231 267 231 267 231 270 C231.99 270.33 232.98 270.66 234 271 C235.1875 274.0625 235.1875 274.0625 236 277 C228.74181102 277.27977779 221.48501829 277.47188129 214.22265625 277.60424805 C211.75467989 277.65944086 209.28706123 277.73441768 206.8203125 277.82983398 C186.33412787 278.60219619 186.33412787 278.60219619 180.71679688 274.74633789 C178.63116841 271.89904609 177.29488038 269.27270392 176 266 C175.2091543 264.74099429 174.39049704 263.49850979 173.53125 262.28515625 C172.52578125 260.68994141 172.52578125 260.68994141 171.5 259.0625 C167.98261784 253.50455805 164.35214253 248.04423184 160.62890625 242.62109375 C159.08283323 240.133288 157.989606 237.75001063 157 235 C156.34 235 155.68 235 155 235 C154.75507813 234.51273438 154.51015625 234.02546875 154.2578125 233.5234375 C151.27961879 227.87513909 147.74933465 222.73236602 144.00634766 217.57543945 C139.58142829 211.46580308 135.41340809 205.19956793 131.25878906 198.90429688 C129.14089378 195.70034358 127.00711796 192.50699805 124.875 189.3125 C124.03898807 188.05864337 123.20304918 186.80473805 122.3671875 185.55078125 C121.96725586 184.95088379 121.56732422 184.35098633 121.15527344 183.73291016 C109.6328125 166.44921875 109.6328125 166.44921875 108.39086914 164.58618164 C107.54385127 163.31573651 106.69668219 162.04539217 105.84936523 160.77514648 C103.73849108 157.61024117 101.63005093 154.44377568 99.52734375 151.2734375 C95.12952056 144.64838306 90.69079437 138.05392206 86.1875 131.5 C85.74349854 130.85361572 85.29949707 130.20723145 84.84204102 129.54125977 C82.68658246 126.41359664 80.50704578 123.30744244 78.28515625 120.2265625 C76.41707446 117.58889487 74.84712605 114.95321141 73.28515625 112.1328125 C71.54748709 109.24902113 69.61850512 106.50589274 67.6875 103.75 C64.23503546 98.82183414 60.93932978 93.82458265 57.734375 88.73046875 C55.274413 84.85769074 52.72309337 81.04872822 50.16796875 77.23828125 C48.62120519 74.92789027 47.08206833 72.61355438 45.55078125 70.29296875 C40.54584244 62.72060508 35.37366205 55.31759048 30 48 C26 42.49717514 26 42.49717514 26 39 C25.34 39 24.68 39 24 39 C22.74609375 37.390625 22.74609375 37.390625 21.4375 35.25 C21.00308594 34.55390625 20.56867188 33.8578125 20.12109375 33.140625 C19.04190962 31.08002255 18.45529329 29.27135078 18 27 C17.34 27 16.68 27 16 27 C14.51595057 24.90238227 13.15218109 22.8125379 11.8125 20.625 C8.46511669 15.26141635 4.98214216 10.07114418 1.21484375 4.98828125 C0 3 0 3 0 0 Z " fill="#F6F5F3" transform="translate(233,128)"/>
<path d="M0 0 C2.46404083 0.06525652 4.92824687 0.12456385 7.39257812 0.17773438 C13.41117273 0.32052413 19.42356974 0.53757227 25.4375 0.8125 C24.75661019 3.73235181 23.85648766 6.16372304 22.4375 8.8125 C21.7775 8.8125 21.1175 8.8125 20.4375 8.8125 C20.17710937 9.53050781 19.91671875 10.24851562 19.6484375 10.98828125 C18.381719 13.94259568 16.87649389 16.34789501 15.0625 19 C14.35996094 20.03640625 13.65742188 21.0728125 12.93359375 22.140625 C12.54155762 22.71619141 12.14952148 23.29175781 11.74560547 23.88476562 C9.18443952 27.65911545 6.65690218 31.45598877 4.125 35.25 C3.60953613 36.01916748 3.09407227 36.78833496 2.56298828 37.58081055 C0.5220672 40.63482905 -1.47268755 43.65497342 -3.29296875 46.84765625 C-3.92138672 47.82025391 -3.92138672 47.82025391 -4.5625 48.8125 C-5.2225 48.8125 -5.8825 48.8125 -6.5625 48.8125 C-6.68633057 49.4012793 -6.81016113 49.99005859 -6.93774414 50.59667969 C-7.93227331 54.12397422 -10.02213215 57.01676923 -12 60.0625 C-12.40798828 60.7121875 -12.81597656 61.361875 -13.23632812 62.03125 C-14.28740602 63.66359284 -15.41921035 65.24336118 -16.5625 66.8125 C-17.2225 66.8125 -17.8825 66.8125 -18.5625 66.8125 C-18.5625 67.8025 -18.5625 68.7925 -18.5625 69.8125 C-19.2225 69.8125 -19.8825 69.8125 -20.5625 69.8125 C-20.789375 70.47507812 -21.01625 71.13765625 -21.25 71.8203125 C-22.96373801 75.72722714 -25.21661478 79.13362889 -27.5625 82.6875 C-28.05234375 83.43636475 -28.5421875 84.18522949 -29.046875 84.95678711 C-30.54679019 87.24555912 -32.05360242 89.52964203 -33.5625 91.8125 C-33.99691406 92.47169434 -34.43132812 93.13088867 -34.87890625 93.81005859 C-39.58879192 100.95055533 -44.38676948 108.02564723 -49.25 115.0625 C-52.32802006 119.51633806 -55.35641481 123.98537434 -58.25 128.5625 C-58.78625 129.40941406 -59.3225 130.25632813 -59.875 131.12890625 C-61.13400973 133.13108145 -62.38229456 135.14000824 -63.625 137.15234375 C-64.32625 138.25707031 -65.0275 139.36179688 -65.75 140.5 C-66.69939453 142.02173828 -66.69939453 142.02173828 -67.66796875 143.57421875 C-68.29316406 144.31285156 -68.91835938 145.05148438 -69.5625 145.8125 C-70.8825 145.8125 -72.2025 145.8125 -73.5625 145.8125 C-75.484375 143.6953125 -75.484375 143.6953125 -77.3125 140.9375 C-77.92609375 140.03257812 -78.5396875 139.12765625 -79.171875 138.1953125 C-80.5625 135.8125 -80.5625 135.8125 -80.5625 133.8125 C-81.2225 133.8125 -81.8825 133.8125 -82.5625 133.8125 C-82.80742187 133.33683594 -83.05234375 132.86117187 -83.3046875 132.37109375 C-85.39859403 128.45043428 -87.60873125 124.69362326 -90.15625 121.05078125 C-90.61273926 120.39343994 -91.06922852 119.73609863 -91.53955078 119.05883789 C-92.46275051 117.74046482 -93.39847073 116.43076093 -94.34716797 115.13061523 C-97.57160227 110.50932937 -97.57160227 110.50932937 -97.52734375 107.12109375 C-96.49650512 104.65459322 -95.35294879 102.76616518 -93.75 100.625 C-89.63361934 94.9660419 -85.7728698 89.15782253 -81.91479492 83.3215332 C-79.59842849 79.82851508 -77.26167872 76.36362632 -74.80859375 72.96484375 C-72.92081296 70.31538445 -71.35325322 67.65224776 -69.78125 64.8125 C-68.24144002 62.28563234 -66.50800975 59.94257474 -64.75 57.5625 C-61.45242973 53.09286516 -58.41965892 48.53002484 -55.47265625 43.82421875 C-52.00499529 38.35680239 -48.37443778 32.99680342 -44.77050781 27.61865234 C-43.00580396 24.98015616 -41.25429665 22.33292344 -39.5 19.6875 C-38.87351562 18.79772461 -38.24703125 17.90794922 -37.6015625 16.99121094 C-35.47502607 13.87762069 -35.47502607 13.87762069 -34.14306641 10.42358398 C-27.29730978 -3.65604938 -13.76591517 -0.63151445 0 0 Z " fill="#F6F5F4" transform="translate(412.5625,36.1875)"/>
<path d="M0 0 C5.8481823 5.51400045 9.80374249 11.53143972 13.59765625 18.5859375 C15.70301898 22.21021094 18.1663466 25.55713321 20.64453125 28.93359375 C22 31 22 31 22 33 C22.66 33 23.32 33 24 33 C25.64229474 35.5117449 26.01593181 36.79402446 25.78125 39.828125 C24.90750205 43.37554166 23.67666744 45.25921624 21.4375 48.125 C17.03367484 53.9289756 13.01165058 59.92086224 9 66 C8.10381008 67.34177782 7.20662599 68.68289202 6.30859375 70.0234375 C5.85274902 70.70438477 5.3969043 71.38533203 4.92724609 72.08691406 C4.03107792 73.42523462 3.13428768 74.76313888 2.23681641 76.10058594 C-0.02828311 79.46305444 -0.02828311 79.46305444 -2 83 C-2.66 83 -3.32 83 -4 83 C-4.09023438 83.54398437 -4.18046875 84.08796875 -4.2734375 84.6484375 C-5.22461734 87.7269873 -6.80768399 89.96568429 -8.625 92.625 C-9.34558594 93.68589844 -10.06617188 94.74679687 -10.80859375 95.83984375 C-12.74842195 98.63720741 -14.71303083 101.41456418 -16.6875 104.1875 C-19.81533585 108.61381816 -22.48533019 113.20242719 -25 118 C-25.66 118 -26.32 118 -27 118 C-27.433125 119.175625 -27.433125 119.175625 -27.875 120.375 C-29 123 -29 123 -31 125 C-36.74944796 126.19377923 -42.45602662 126.13026578 -48.30859375 126.09765625 C-49.27531509 126.0962413 -50.24203644 126.09482635 -51.23805237 126.09336853 C-54.30456732 126.08780221 -57.37100738 126.07525599 -60.4375 126.0625 C-62.52538957 126.05748065 -64.61328028 126.0529185 -66.70117188 126.04882812 C-71.8008098 126.03784382 -76.90039223 126.02060255 -82 126 C-83 123 -83 123 -81.6875 120.3125 C-81.130625 119.549375 -80.57375 118.78625 -80 118 C-79.34 118 -78.68 118 -78 118 C-77.87616943 117.4112207 -77.75233887 116.82244141 -77.62475586 116.21582031 C-76.63022669 112.68852578 -74.54036785 109.79573077 -72.5625 106.75 C-72.15451172 106.1003125 -71.74652344 105.450625 -71.32617188 104.78125 C-70.27509398 103.14890716 -69.14328965 101.56913882 -68 100 C-67.34 100 -66.68 100 -66 100 C-65.87882812 99.41114014 -65.75765625 98.82228027 -65.6328125 98.21557617 C-64.98690157 95.95414033 -64.18878276 94.48801267 -62.875 92.55078125 C-62.42406982 91.87990479 -61.97313965 91.20902832 -61.50854492 90.51782227 C-60.76181519 89.42618774 -60.76181519 89.42618774 -60 88.3125 C-59.47962158 87.54156006 -58.95924316 86.77062012 -58.4230957 85.97631836 C-56.62228243 83.31280567 -54.81192439 80.65596583 -53 78 C-50.80621951 74.77982739 -48.61271573 71.55946762 -46.41992188 68.33862305 C-44.96650162 66.20570022 -43.5108841 64.07427245 -42.05273438 61.94458008 C-37.12328825 54.72637957 -32.35994314 47.41828668 -27.75341797 39.98974609 C-26.88671806 38.62597413 -25.95250664 37.30528687 -25 36 C-24.34 36 -23.68 36 -23 36 C-22.89131592 35.43249023 -22.78263184 34.86498047 -22.6706543 34.28027344 C-21.90043612 31.66147557 -20.7634977 29.79896096 -19.26953125 27.515625 C-18.43518555 26.23558594 -18.43518555 26.23558594 -17.58398438 24.9296875 C-16.99939453 24.04539062 -16.41480469 23.16109375 -15.8125 22.25 C-15.24724609 21.38117188 -14.68199219 20.51234375 -14.09960938 19.6171875 C-10.95974896 14.82647264 -7.71200977 10.18582957 -4.1706543 5.68261719 C-2.80703201 3.89146159 -2.80703201 3.89146159 -2 1 C-1.34 0.67 -0.68 0.34 0 0 Z " fill="#F6F5F3" transform="translate(314,280)"/>
<path d="M0 0 C0.9653064 0.02361099 1.93061279 0.04722198 2.9251709 0.07154846 C5.98153659 0.14757985 9.03760917 0.23186137 12.09375 0.31640625 C14.17706941 0.36968766 16.26040275 0.42242755 18.34375 0.47460938 C23.42726581 0.60311217 28.51053549 0.73900999 33.59375 0.87890625 C32.75392524 4.74601831 31.15489992 7.28980208 28.90625 10.56640625 C28.17921875 11.63503906 27.4521875 12.70367187 26.703125 13.8046875 C25.65898437 15.32642578 25.65898437 15.32642578 24.59375 16.87890625 C23.61138578 18.33508756 22.63187874 19.79320367 21.65625 21.25390625 C21.18832031 21.95128906 20.72039062 22.64867187 20.23828125 23.3671875 C18.89830867 25.41374894 17.58964543 27.47293055 16.29296875 29.546875 C15.88876709 30.18898926 15.48456543 30.83110352 15.06811523 31.49267578 C14.26079318 32.77762985 13.4593702 34.06631185 12.66430664 35.35888672 C11.69349695 36.90004975 10.64944424 38.39460014 9.59375 39.87890625 C8.93375 39.87890625 8.27375 39.87890625 7.59375 39.87890625 C7.490625 40.43578125 7.3875 40.99265625 7.28125 41.56640625 C6.45196592 44.35581635 5.25075944 46.49281265 3.59375 48.87890625 C2.93375 48.87890625 2.27375 48.87890625 1.59375 48.87890625 C1.490625 49.43578125 1.3875 49.99265625 1.28125 50.56640625 C0.45196592 53.35581635 -0.74924056 55.49281265 -2.40625 57.87890625 C-3.06625 57.87890625 -3.72625 57.87890625 -4.40625 57.87890625 C-4.67050781 58.59691406 -4.93476563 59.31492188 -5.20703125 60.0546875 C-8.45671478 67.707851 -13.80689372 74.52268552 -18.58984375 81.28515625 C-23.15704812 87.80692766 -27.52766201 94.46155107 -31.78125 101.19140625 C-32.34199219 102.07054687 -32.90273438 102.9496875 -33.48046875 103.85546875 C-34.53221525 105.50668943 -35.58165951 107.15942029 -36.61962891 108.81933594 C-37.93091733 110.9105346 -39.26088617 112.98890801 -40.59375 115.06640625 C-41.00995605 115.73905518 -41.42616211 116.4117041 -41.85498047 117.10473633 C-43.07421875 118.984375 -43.07421875 118.984375 -45.40625 121.87890625 C-46.72625 121.87890625 -48.04625 121.87890625 -49.40625 121.87890625 C-51.546875 119.578125 -51.546875 119.578125 -53.65625 116.56640625 C-54.71585937 115.08720703 -54.71585937 115.08720703 -55.796875 113.578125 C-57.40625 110.87890625 -57.40625 110.87890625 -57.40625 107.87890625 C-58.39625 107.54890625 -59.38625 107.21890625 -60.40625 106.87890625 C-61.30823392 105.35247193 -62.19550216 103.81598317 -63.01953125 102.24609375 C-65.21429513 98.49953908 -67.8558965 95.03181296 -70.49658203 91.58691406 C-72.31072523 89.09143427 -73.41244699 87.45788203 -73.37890625 84.32421875 C-72.22147564 81.41437312 -70.76707032 78.9862988 -69.03125 76.37890625 C-67.21254095 73.62375553 -65.42512382 70.91241879 -63.8046875 68.03515625 C-63.34320313 67.32359375 -62.88171875 66.61203125 -62.40625 65.87890625 C-61.74625 65.87890625 -61.08625 65.87890625 -60.40625 65.87890625 C-60.30586426 65.31824463 -60.20547852 64.75758301 -60.10205078 64.17993164 C-59.25671926 61.38440548 -57.94275039 59.45908664 -56.2734375 57.0625 C-55.63148438 56.13244141 -54.98953125 55.20238281 -54.328125 54.24414062 C-53.65265625 53.27798828 -52.9771875 52.31183594 -52.28125 51.31640625 C-47.69895993 44.71917638 -43.23456924 38.08294161 -38.95117188 31.28735352 C-37.1502876 28.47987511 -35.22503498 25.79292177 -33.21875 23.12890625 C-31.09821786 20.25684453 -29.05985863 17.44793781 -27.34375 14.31640625 C-25.66442305 11.33695522 -23.97787129 8.39803266 -22.15625 5.50390625 C-21.63546875 4.65054688 -21.1146875 3.7971875 -20.578125 2.91796875 C-15.66493356 -1.69477573 -6.37768383 -0.18717904 0 0 Z " fill="#F6F5F3" transform="translate(433.40625,127.12109375)"/>
<path d="M0 0 C0.66 0.33 1.32 0.66 2 1 C2 1.99 2 2.98 2 4 C2.99 4.33 3.98 4.66 5 5 C7.58245121 8.44326828 8.43763347 10.73148803 8 15 C6.6875 17.45703125 6.6875 17.45703125 5 19.8125 C4.443125 20.60269531 3.88625 21.39289063 3.3125 22.20703125 C2.879375 22.79871094 2.44625 23.39039063 2 24 C1.67 22.68 1.34 21.36 1 20 C0.05125 19.855625 -0.8975 19.71125 -1.875 19.5625 C-5 19 -5 19 -7 18 C-7.28571429 10.57142857 -7.28571429 10.57142857 -5 7 C-3.35 7.33 -1.7 7.66 0 8 C1.09658936 4.71023192 0.79953138 3.28696233 0 0 Z " fill="#DEDEDC" transform="translate(287,239)"/>
<path d="M0 0 C2.31 0.33 4.62 0.66 7 1 C6 3 5 5 4 7 C4.66 7 5.32 7 6 7 C6.33 6.34 6.66 5.68 7 5 C7.66 5 8.32 5 9 5 C8.125 8.875 8.125 8.875 7 10 C13.93 10.33 20.86 10.66 28 11 C28 11.33 28 11.66 28 12 C14.14 12 0.28 12 -14 12 C-14 11.67 -14 11.34 -14 11 C-13.195625 10.87625 -12.39125 10.7525 -11.5625 10.625 C-10.716875 10.41875 -9.87125 10.2125 -9 10 C-8.67 9.34 -8.34 8.68 -8 8 C-7.21625 7.938125 -6.4325 7.87625 -5.625 7.8125 C-4.75875 7.544375 -3.8925 7.27625 -3 7 C-1.13016255 3.52692672 -1.13016255 3.52692672 0 0 Z " fill="#EFEFED" transform="translate(92,312)"/>
<path d="M0 0 C1.2065625 0.0309375 1.2065625 0.0309375 2.4375 0.0625 C2.9909764 2.13803648 3.4375 3.90615964 3.4375 6.0625 C4.4275 5.7325 5.4175 5.4025 6.4375 5.0625 C6.25 6.875 6.25 6.875 5.4375 9.0625 C1.25892857 12.0625 1.25892857 12.0625 -1.5625 12.0625 C-1.2325 13.0525 -0.9025 14.0425 -0.5625 15.0625 C-1.2225 15.0625 -1.8825 15.0625 -2.5625 15.0625 C-2.8925 15.7225 -3.2225 16.3825 -3.5625 17.0625 C-5.5425 13.7625 -7.5225 10.4625 -9.5625 7.0625 C-7.0875 7.5575 -7.0875 7.5575 -4.5625 8.0625 C-4.418125 6.928125 -4.27375 5.79375 -4.125 4.625 C-3.40786082 0.08311856 -3.40786082 0.08311856 0 0 Z " fill="#E8E7E5" transform="translate(309.5625,222.9375)"/>
<path d="M0 0 C0.33 0.66 0.66 1.32 1 2 C1.66 2.33 2.32 2.66 3 3 C-1.95 9.93 -1.95 9.93 -7 17 C-10 14 -10 14 -10.5 11.5 C-10 9 -10 9 -7.625 7.1875 C-5 6 -5 6 -3 6 C-3 5.34 -3 4.68 -3 4 C-2.34 4 -1.68 4 -1 4 C-0.67 2.68 -0.34 1.36 0 0 Z " fill="#D4D4D2" transform="translate(323,339)"/>
<path d="M0 0 C0.2475 0.53625 0.495 1.0725 0.75 1.625 C2.01163659 4.16756012 2.01163659 4.16756012 4.125 6.875 C6.18214631 10.30357718 6.37305442 12.0829286 6 16 C5.67 15.01 5.34 14.02 5 13 C4.34 13 3.68 13 3 13 C1.74609375 11.390625 1.74609375 11.390625 0.4375 9.25 C0.00308594 8.55390625 -0.43132812 7.8578125 -0.87890625 7.140625 C-1.95809038 5.08002255 -2.54470671 3.27135078 -3 1 C-2.01 0.67 -1.02 0.34 0 0 Z " fill="#C7C7C6" transform="translate(254,154)"/>
<path d="M0 0 C9.9 0 19.8 0 30 0 C29.67 1.32 29.34 2.64 29 4 C28.01 4.495 28.01 4.495 27 5 C27 3.68 27 2.36 27 1 C18.09 1 9.18 1 0 1 C0 0.67 0 0.34 0 0 Z " fill="#D8D7D5" transform="translate(437,128)"/>
<path d="M0 0 C0.99 0.33 1.98 0.66 3 1 C1.125 5.75 1.125 5.75 0 8 C-0.66 8 -1.32 8 -2 8 C-2.103125 8.598125 -2.20625 9.19625 -2.3125 9.8125 C-3.08876455 12.28243264 -4.07088921 13.32251235 -6 15 C-6.33 13.02 -6.66 11.04 -7 9 C-6.01 8.67 -5.02 8.34 -4 8 C-3.34 7.01 -2.68 6.02 -2 5 C-1.34 5 -0.68 5 0 5 C0 3.35 0 1.7 0 0 Z " fill="#BFBFBE" transform="translate(312,355)"/>
<path d="M0 0 C0.66 0.99 1.32 1.98 2 3 C1.34 3.66 0.68 4.32 0 5 C-0.433125 5.928125 -0.433125 5.928125 -0.875 6.875 C-2.21259274 9.40156407 -3.92063932 11.05926336 -6 13 C-6.66 12.67 -7.32 12.34 -8 12 C-7.34 10.68 -6.68 9.36 -6 8 C-5.34 8 -4.68 8 -4 8 C-3.896875 7.4225 -3.79375 6.845 -3.6875 6.25 C-2.90207202 3.67950842 -1.69495803 2.06342716 0 0 Z " fill="#B1B1AF" transform="translate(97,235)"/>
<path d="M0 0 C1.32 0 2.64 0 4 0 C4 0.66 4 1.32 4 2 C4.66 2.33 5.32 2.66 6 3 C4.02 5.97 4.02 5.97 2 9 C-0.29013653 5.5647952 -0.17842973 4.014669 0 0 Z " fill="#DFDFDC" transform="translate(282,261)"/>
<path d="M0 0 C0.45375 0.474375 0.9075 0.94875 1.375 1.4375 C2.93258204 3.09027808 2.93258204 3.09027808 5 4 C4.67 6.31 4.34 8.62 4 11 C1.11670417 7.744666 -0.63331529 5.40021656 -1 1 C-0.67 0.67 -0.34 0.34 0 0 Z " fill="#C3C3C1" transform="translate(361,209)"/>
<path d="M0 0 C0.92538169 3.70152678 1.08174162 4.63458162 0 8 C-0.66 8 -1.32 8 -2 8 C-3.63676257 9.9600281 -3.63676257 9.9600281 -5 12 C-5.66 11.67 -6.32 11.34 -7 11 C-4.69 7.37 -2.38 3.74 0 0 Z " fill="#C1C1BF" transform="translate(148,158)"/>
<path d="M0 0 C0.33 0.66 0.66 1.32 1 2 C1.66 2 2.32 2 3 2 C4.6875 4.375 4.6875 4.375 6 7 C5.67 7.66 5.34 8.32 5 9 C3.68 8.67 2.36 8.34 1 8 C1 7.01 1 6.02 1 5 C0.01 4.34 -0.98 3.68 -2 3 C-2 2.34 -2 1.68 -2 1 C-1.34 0.67 -0.68 0.34 0 0 Z " fill="#C0C0C0" transform="translate(385,279)"/>
<path d="M0 0 C0.99 0 1.98 0 3 0 C6 3.33333333 6 3.33333333 6 6 C4.88625 5.814375 3.7725 5.62875 2.625 5.4375 C-0.82568861 4.68319343 -0.82568861 4.68319343 -3 6 C-2 4 -1 2 0 0 Z " fill="#949493" transform="translate(268,213)"/>
<path d="M0 0 C5.66153846 1.47692308 5.66153846 1.47692308 7.375 4.125 C7.684375 5.053125 7.684375 5.053125 8 6 C7.34 6 6.68 6 6 6 C5.67 6.66 5.34 7.32 5 8 C2.525 4.04 2.525 4.04 0 0 Z " fill="#C5C4C3" transform="translate(353,309)"/>
<path d="M0 0 C0.99 1.32 1.98 2.64 3 4 C1.75 5.5625 1.75 5.5625 0 7 C-2.1875 6.6875 -2.1875 6.6875 -4 6 C-2.68 4.02 -1.36 2.04 0 0 Z " fill="#C3C3C2" transform="translate(157,145)"/>
<path d="M0 0 C0.99 0.66 1.98 1.32 3 2 C2.67 3.65 2.34 5.3 2 7 C1.01 7 0.02 7 -1 7 C-1.625 5.1875 -1.625 5.1875 -2 3 C-1.34 2.01 -0.68 1.02 0 0 Z " fill="#DCDCDB" transform="translate(371,130)"/>
<path d="M0 0 C0.66 0.99 1.32 1.98 2 3 C1.23883449 4.15227823 0.46567307 5.2966386 -0.3125 6.4375 C-0.74175781 7.07558594 -1.17101562 7.71367187 -1.61328125 8.37109375 C-3 10 -3 10 -6 11 C-4.54955729 6.89041233 -2.48889248 3.56741255 0 0 Z " fill="#B4B4B2" transform="translate(259,361)"/>
<path d="M0 0 C2.97 0.495 2.97 0.495 6 1 C6 3.64 6 6.28 6 9 C2.91910327 6.22719294 1.31224548 3.93673644 0 0 Z " fill="#C6C6C5" transform="translate(307,240)"/>
<path d="M0 0 C1.43088528 2.86177057 0.59991697 4.93375773 0 8 C-1.98 8.66 -3.96 9.32 -6 10 C-5.18957164 8.51969728 -4.37659652 7.04078858 -3.5625 5.5625 C-2.88380859 4.32693359 -2.88380859 4.32693359 -2.19140625 3.06640625 C-1 1 -1 1 0 0 Z " fill="#AFAFAC" transform="translate(333,116)"/>
<path d="M0 0 C1.41702513 0.14230808 2.8336096 0.28900746 4.25 0.4375 C5.43335937 0.55931641 5.43335937 0.55931641 6.640625 0.68359375 C8.82364639 0.97634993 10.8773182 1.42064419 13 2 C13 2.33 13 2.66 13 3 C9.04 3 5.08 3 1 3 C0.67 2.01 0.34 1.02 0 0 Z " fill="#A7A7A5" transform="translate(118,279)"/>
<path d="M0 0 C0.99 0.99 1.98 1.98 3 3 C0.87219421 5.34058637 -1.11562221 6.70700306 -4 8 C-2.87548273 5.0280615 -1.77706209 2.66559313 0 0 Z " fill="#C1C0BE" transform="translate(277,334)"/>
<path d="M0 0 C0.66 0.33 1.32 0.66 2 1 C0.02 3.97 0.02 3.97 -2 7 C-2.99 6.67 -3.98 6.34 -5 6 C-3.63016497 2.83884224 -3.0109362 2.0072908 0 0 Z " fill="#BBBAB8" transform="translate(439,169)"/>
<path d="M0 0 C0.33 0.99 0.66 1.98 1 3 C0.34 3.66 -0.32 4.32 -1 5 C-1.309375 5.845625 -1.61875 6.69125 -1.9375 7.5625 C-2.288125 8.366875 -2.63875 9.17125 -3 10 C-3.99 10.33 -4.98 10.66 -6 11 C-4.18690997 7.22272911 -2.0926741 3.62730178 0 0 Z " fill="#919191" transform="translate(344,99)"/>
<path d="M0 0 C0.99 0.66 1.98 1.32 3 2 C2.01 3.32 1.02 4.64 0 6 C-1.32 5.34 -2.64 4.68 -4 4 C-2.68 2.68 -1.36 1.36 0 0 Z " fill="#B4B4B3" transform="translate(342,177)"/>
<path d="M0 0 C1.98 0.495 1.98 0.495 4 1 C2.92598892 3.91517292 2.22189824 5.77810176 0 8 C-1.125 2.25 -1.125 2.25 0 0 Z " fill="#BDBCBB" transform="translate(367,137)"/>
<path d="M0 0 C3.3 0 6.6 0 10 0 C9.67 1.32 9.34 2.64 9 4 C8.01 4.495 8.01 4.495 7 5 C7 3.68 7 2.36 7 1 C4.69 1 2.38 1 0 1 C0 0.67 0 0.34 0 0 Z " fill="#D0D0CF" transform="translate(457,128)"/>
<path d="M0 0 C1.98 0.66 3.96 1.32 6 2 C4.68 3.32 3.36 4.64 2 6 C0 2.25 0 2.25 0 0 Z " fill="#F9F8F6" transform="translate(283,251)"/>
<path d="M0 0 C0.99 0.99 1.98 1.98 3 3 C1.625 5 1.625 5 0 7 C-0.66 7 -1.32 7 -2 7 C-1.42415568 4.61435923 -0.77772405 2.33317216 0 0 Z " fill="#C4C4C3" transform="translate(387,243)"/>
<path d="M0 0 C1.5 1.25 1.5 1.25 3 3 C3 4.32 3 5.64 3 7 C2.01 7 1.02 7 0 7 C-0.93423645 3.98968256 -1.04449911 3.13349732 0 0 Z " fill="#CED0CC" transform="translate(237,164)"/>
<path d="M0 0 C0 3.90838866 -1.50567876 5.11594107 -4 8 C-4.33 6.68 -4.66 5.36 -5 4 C-3.35 2.68 -1.7 1.36 0 0 Z " fill="#A9A9A7" transform="translate(335,325)"/>
<path d="M0 0 C0.8125 1.6875 0.8125 1.6875 1 4 C-1.4375 6.75 -1.4375 6.75 -4 9 C-4 5.00095031 -2.27413033 3.19799578 0 0 Z " fill="#A0A0A0" transform="translate(302,297)"/>
<path d="M0 0 C0.99 0 1.98 0 3 0 C2.25 1.9375 2.25 1.9375 1 4 C-1.125 4.75 -1.125 4.75 -3 5 C-1.6875 2.5 -1.6875 2.5 0 0 Z " fill="#F1F0EE" transform="translate(378,293)"/>
<path d="M0 0 C1.70884005 1.62339805 3.37446717 3.29319053 5 5 C5 5.66 5 6.32 5 7 C3.68 6.34 2.36 5.68 1 5 C1 4.01 1 3.02 1 2 C0.01 2.33 -0.98 2.66 -2 3 C-2 2.34 -2 1.68 -2 1 C-1.34 0.67 -0.68 0.34 0 0 Z " fill="#A4A4A3" transform="translate(314,280)"/>
<path d="M0 0 C0.99 0.33 1.98 0.66 3 1 C1.515 3.475 1.515 3.475 0 6 C-0.33 5.01 -0.66 4.02 -1 3 C-1.66 2.67 -2.32 2.34 -3 2 C-2.01 1.34 -1.02 0.68 0 0 Z " fill="#C0CFBE" transform="translate(401,89)"/>
</svg>
